<svg xmlns="http://www.w3.org/2000/svg" viewBox="0 0 512 512"><g transform="translate(0 -952.362)"><path fill="#3eb6ff" d="M404.694 1284.96c-33.149 0-61.998 18.388-76.782 45.415H61.574L20 1367.532l47.652 45.415 31.339-24.772 24.945 24.772 24.945-24.772 31.339 24.772h147.693c14.784 27.027 43.633 45.415 76.782 45.415 48.217 0 87.306-38.818 87.306-86.701-.001-47.884-39.089-86.701-87.307-86.701z"/><ellipse cx="405.662" cy="1371.661" fill="#0795ff" rx="24.945" ry="24.772"/></g><path fill="#dfe8f4" d="m232.792 6-7.053 38.583a122.445 122.445 0 0 0-19.773 8.153l-32.608-22.277-41.859 41.569 22.548 32.268a119.788 119.788 0 0 0-8.21 19.636l-38.852 7.005v58.794l38.852 7.005c2.168 6.848 5.027 13.372 8.326 19.636l-22.664 32.268 41.859 41.569 32.493-22.278c6.303 3.272 12.999 6.003 19.889 8.153l7.053 38.583h59.204l7.053-38.583a121.58 121.58 0 0 0 19.773-8.153l32.492 22.278 41.859-41.569-22.548-32.267c3.274-6.223 6.051-12.723 8.21-19.521l38.968-7.12v-58.794l-38.968-7.005c-2.148-6.786-4.836-13.308-8.095-19.521l22.433-32.382-41.859-41.569-32.492 22.277a121.668 121.668 0 0 0-19.773-8.153l-7.053-38.583L232.792 6z"/><path fill="#ffbb1b" d="M301.897 127.009h-78.261c-6.872 0-12.447 5.551-12.432 12.376v54.255c0 6.824 5.59 12.361 12.462 12.361l38.728-.022 38.758-.022c6.872 0 12.447-5.536 12.432-12.361v-54.27c0-6.559-5.173-11.918-11.687-12.317z"/><path fill="#ffde93" d="M224.948 127.009h-1.312c-6.872 0-12.447 5.551-12.432 12.376v54.255c0 6.824 5.59 12.361 12.462 12.361l38.728-.022v-78.97h-37.446z"/><path fill="#4d28a8" d="M292.602 128.895c-3.406 0-6.168-2.753-6.168-6.148 0-13.151-10.785-23.851-24.04-23.851-13.256 0-24.04 10.699-24.04 23.851 0 3.395-2.762 6.148-6.168 6.148s-6.168-2.753-6.168-6.148c0-19.93 16.318-36.146 36.375-36.146s36.375 16.215 36.375 36.146c.001 3.395-2.76 6.148-6.166 6.148z"/><path fill="#623add" d="M262.394 98.897c-13.256 0-24.04 10.699-24.04 23.851 0 3.395-2.762 6.148-6.168 6.148s-6.168-2.753-6.168-6.148c0-19.93 16.318-36.146 36.375-36.146"/><path fill="#4d28a8" d="M262.394 192.294a6 6 0 0 1-6-6v-26.488a6 6 0 0 1 12 0v26.488a6 6 0 0 1-6 6z"/></svg>