<svg xmlns="http://www.w3.org/2000/svg" viewBox="0 0 24 24"><path fill="#9c9efe" d="M21.6 14.79C20.38 19.03 16.43 22 12 22 6.49 22 2 17.51 2 12c0-4.43 2.97-8.38 7.21-9.6.41-.12.85.04 1.1.38.24.35.24.82-.01 1.16A6.937 6.937 0 0 0 9 8c0 3.86 3.14 7 7 7 1.47 0 2.87-.45 4.06-1.3.34-.25.81-.25 1.16-.01.34.25.5.69.38 1.1z"/><path d="M20.52 17.21C18.75 20.12 15.52 22 12 22 6.49 22 2 17.51 2 12c0-2.79 1.18-5.39 3.12-7.24A9.88 9.88 0 0 0 3.62 10c0 5.51 4.49 10 10 10 2.62 0 5.08-1.04 6.9-2.79z" opacity=".1"/></svg>